<svg width="2550" height="1320" viewBox="0 0 2550 1320" fill="none" xmlns="http://www.w3.org/2000/svg">
<circle cx="1584" cy="660" r="576" fill="#E2E2E2"/>
<path d="M66.0511 795H9.80114L112.216 504.091H177.273L279.83 795H223.58L145.881 563.75H143.608L66.0511 795ZM67.8977 680.938H221.307V723.267H67.8977V680.938ZM315.874 876.818V576.818H366.442V612.898H369.425C372.076 607.595 375.817 601.96 380.646 595.994C385.476 589.934 392.01 584.773 400.249 580.511C408.487 576.155 418.999 573.977 431.783 573.977C448.639 573.977 463.838 578.286 477.379 586.903C491.016 595.426 501.811 608.068 509.766 624.83C517.815 641.496 521.839 661.951 521.839 686.193C521.839 710.152 517.91 730.511 510.05 747.273C502.19 764.034 491.489 776.818 477.947 785.625C464.406 794.432 449.065 798.835 431.925 798.835C419.425 798.835 409.055 796.752 400.817 792.585C392.578 788.419 385.949 783.4 380.93 777.528C376.006 771.562 372.171 765.928 369.425 760.625H367.294V876.818H315.874ZM366.3 685.909C366.3 700.019 368.288 712.377 372.266 722.983C376.338 733.589 382.161 741.875 389.737 747.841C397.408 753.712 406.688 756.648 417.578 756.648C428.942 756.648 438.459 753.617 446.129 747.557C453.8 741.402 459.576 733.021 463.459 722.415C467.436 711.714 469.425 699.545 469.425 685.909C469.425 672.367 467.483 660.341 463.601 649.83C459.718 639.318 453.942 631.08 446.271 625.114C438.601 619.148 429.036 616.165 417.578 616.165C406.593 616.165 397.266 619.053 389.595 624.83C381.925 630.606 376.101 638.703 372.124 649.119C368.241 659.536 366.3 671.799 366.3 685.909ZM565.874 876.818V576.818H616.442V612.898H619.425C622.076 607.595 625.817 601.96 630.646 595.994C635.476 589.934 642.01 584.773 650.249 580.511C658.487 576.155 668.999 573.977 681.783 573.977C698.639 573.977 713.838 578.286 727.379 586.903C741.016 595.426 751.811 608.068 759.766 624.83C767.815 641.496 771.839 661.951 771.839 686.193C771.839 710.152 767.91 730.511 760.05 747.273C752.19 764.034 741.489 776.818 727.947 785.625C714.406 794.432 699.065 798.835 681.925 798.835C669.425 798.835 659.055 796.752 650.817 792.585C642.578 788.419 635.949 783.4 630.93 777.528C626.006 771.562 622.171 765.928 619.425 760.625H617.294V876.818H565.874ZM616.3 685.909C616.3 700.019 618.288 712.377 622.266 722.983C626.338 733.589 632.161 741.875 639.737 747.841C647.408 753.712 656.688 756.648 667.578 756.648C678.942 756.648 688.459 753.617 696.129 747.557C703.8 741.402 709.576 733.021 713.459 722.415C717.436 711.714 719.425 699.545 719.425 685.909C719.425 672.367 717.483 660.341 713.601 649.83C709.718 639.318 703.942 631.08 696.271 625.114C688.601 619.148 679.036 616.165 667.578 616.165C656.593 616.165 647.266 619.053 639.595 624.83C631.925 630.606 626.101 638.703 622.124 649.119C618.241 659.536 616.3 671.799 616.3 685.909ZM912.464 799.261C890.589 799.261 871.697 794.716 855.788 785.625C839.974 776.439 827.805 763.466 819.283 746.705C810.76 729.848 806.499 710.009 806.499 687.188C806.499 664.744 810.76 645.047 819.283 628.097C827.9 611.051 839.927 597.794 855.362 588.324C870.798 578.759 888.932 573.977 909.766 573.977C923.213 573.977 935.902 576.155 947.834 580.511C959.86 584.773 970.466 591.402 979.652 600.398C988.932 609.394 996.224 620.852 1001.53 634.773C1006.83 648.598 1009.48 665.076 1009.48 684.205V699.972H830.646V665.312H960.192C960.097 655.464 957.966 646.705 953.8 639.034C949.633 631.269 943.809 625.161 936.328 620.71C928.942 616.259 920.324 614.034 910.476 614.034C899.964 614.034 890.732 616.591 882.777 621.705C874.822 626.723 868.62 633.352 864.169 641.591C859.813 649.735 857.588 658.684 857.493 668.438V698.693C857.493 711.383 859.813 722.273 864.453 731.364C869.093 740.36 875.58 747.273 883.913 752.102C892.247 756.837 902 759.205 913.175 759.205C920.656 759.205 927.427 758.163 933.487 756.08C939.548 753.902 944.804 750.729 949.254 746.562C953.705 742.396 957.067 737.235 959.339 731.08L1007.35 736.477C1004.32 749.167 998.544 760.246 990.021 769.716C981.593 779.091 970.798 786.383 957.635 791.591C944.472 796.705 929.415 799.261 912.464 799.261ZM1161.93 576.818V616.591H1036.51V576.818H1161.93ZM1067.47 524.545H1118.89V729.375C1118.89 736.288 1119.93 741.591 1122.02 745.284C1124.2 748.883 1127.04 751.345 1130.54 752.67C1134.04 753.996 1137.93 754.659 1142.19 754.659C1145.41 754.659 1148.34 754.422 1150.99 753.949C1153.74 753.475 1155.82 753.049 1157.24 752.67L1165.91 792.869C1163.16 793.816 1159.23 794.858 1154.12 795.994C1149.1 797.131 1142.95 797.794 1135.65 797.983C1122.77 798.362 1111.17 796.42 1100.85 792.159C1090.53 787.803 1082.34 781.08 1076.28 771.989C1070.31 762.898 1067.38 751.534 1067.47 737.898V524.545ZM1204.94 795V576.818H1256.36V795H1204.94ZM1230.79 545.852C1222.64 545.852 1215.64 543.153 1209.77 537.756C1203.89 532.263 1200.96 525.682 1200.96 518.011C1200.96 510.246 1203.89 503.665 1209.77 498.267C1215.64 492.775 1222.64 490.028 1230.79 490.028C1239.03 490.028 1246.03 492.775 1251.81 498.267C1257.68 503.665 1260.62 510.246 1260.62 518.011C1260.62 525.682 1257.68 532.263 1251.81 537.756C1246.03 543.153 1239.03 545.852 1230.79 545.852ZM1306.39 795V762.33L1418.89 621.278V619.432H1310.09V576.818H1481.82V611.903L1374.72 750.54V752.386H1485.51V795H1306.39ZM1624.18 799.261C1602.31 799.261 1583.42 794.716 1567.51 785.625C1551.69 776.439 1539.52 763.466 1531 746.705C1522.48 729.848 1518.22 710.009 1518.22 687.188C1518.22 664.744 1522.48 645.047 1531 628.097C1539.62 611.051 1551.65 597.794 1567.08 588.324C1582.52 578.759 1600.65 573.977 1621.48 573.977C1634.93 573.977 1647.62 576.155 1659.55 580.511C1671.58 584.773 1682.19 591.402 1691.37 600.398C1700.65 609.394 1707.94 620.852 1713.25 634.773C1718.55 648.598 1721.2 665.076 1721.2 684.205V699.972H1542.37V665.312H1671.91C1671.82 655.464 1669.69 646.705 1665.52 639.034C1661.35 631.269 1655.53 625.161 1648.05 620.71C1640.66 616.259 1632.04 614.034 1622.19 614.034C1611.68 614.034 1602.45 616.591 1594.5 621.705C1586.54 626.723 1580.34 633.352 1575.89 641.591C1571.53 649.735 1569.31 658.684 1569.21 668.438V698.693C1569.21 711.383 1571.53 722.273 1576.17 731.364C1580.81 740.36 1587.3 747.273 1595.63 752.102C1603.97 756.837 1613.72 759.205 1624.89 759.205C1632.37 759.205 1639.15 758.163 1645.21 756.08C1651.27 753.902 1656.52 750.729 1660.97 746.562C1665.42 742.396 1668.79 737.235 1671.06 731.08L1719.07 736.477C1716.04 749.167 1710.26 760.246 1701.74 769.716C1693.31 779.091 1682.52 786.383 1669.35 791.591C1656.19 796.705 1641.13 799.261 1624.18 799.261ZM1764.7 795V576.818H1814.56V613.182H1816.83C1820.81 600.587 1827.63 590.881 1837.29 584.062C1847.04 577.15 1858.17 573.693 1870.67 573.693C1873.51 573.693 1876.68 573.835 1880.18 574.119C1883.78 574.309 1886.77 574.64 1889.13 575.114V622.415C1886.96 621.657 1883.5 620.994 1878.76 620.426C1874.12 619.763 1869.63 619.432 1865.27 619.432C1855.89 619.432 1847.47 621.468 1839.99 625.54C1832.6 629.517 1826.78 635.057 1822.51 642.159C1818.25 649.261 1816.12 657.453 1816.12 666.733V795H1764.7ZM2095.74 634.489L2048.86 639.602C2047.54 634.867 2045.22 630.417 2041.9 626.25C2038.68 622.083 2034.33 618.722 2028.84 616.165C2023.34 613.608 2016.62 612.33 2008.66 612.33C1997.96 612.33 1988.97 614.65 1981.68 619.29C1974.48 623.93 1970.93 629.943 1971.02 637.33C1970.93 643.674 1973.25 648.835 1977.98 652.812C1982.81 656.79 1990.77 660.057 2001.85 662.614L2039.06 670.568C2059.71 675.019 2075.05 682.074 2085.09 691.733C2095.22 701.392 2100.33 714.034 2100.43 729.659C2100.33 743.39 2096.31 755.511 2088.35 766.023C2080.49 776.439 2069.55 784.583 2055.54 790.455C2041.52 796.326 2025.43 799.261 2007.24 799.261C1980.54 799.261 1959.04 793.674 1942.76 782.5C1926.47 771.231 1916.76 755.559 1913.64 735.483L1963.78 730.653C1966.05 740.502 1970.88 747.936 1978.27 752.955C1985.65 757.973 1995.27 760.483 2007.1 760.483C2019.32 760.483 2029.12 757.973 2036.51 752.955C2043.99 747.936 2047.73 741.733 2047.73 734.347C2047.73 728.097 2045.31 722.936 2040.48 718.864C2035.75 714.792 2028.36 711.667 2018.32 709.489L1981.11 701.676C1960.18 697.32 1944.7 689.981 1934.66 679.659C1924.62 669.242 1919.65 656.08 1919.74 640.17C1919.65 626.723 1923.3 615.076 1930.68 605.227C1938.16 595.284 1948.53 587.614 1961.79 582.216C1975.14 576.723 1990.53 573.977 2007.95 573.977C2033.52 573.977 2053.65 579.422 2068.32 590.312C2083.1 601.203 2092.23 615.928 2095.74 634.489Z" fill="#555555"/>
<g clip-path="url(#clip0_99_30)">
<circle cx="1080" cy="660" r="660" fill="#59EA8E"/>
<path d="M66.0511 795H9.80114L112.216 504.091H177.273L279.83 795H223.58L145.881 563.75H143.608L66.0511 795ZM67.8977 680.938H221.307V723.267H67.8977V680.938ZM315.874 876.818V576.818H366.442V612.898H369.425C372.076 607.595 375.817 601.96 380.646 595.994C385.476 589.934 392.01 584.773 400.249 580.511C408.487 576.155 418.999 573.977 431.783 573.977C448.639 573.977 463.838 578.286 477.379 586.903C491.016 595.426 501.811 608.068 509.766 624.83C517.815 641.496 521.839 661.951 521.839 686.193C521.839 710.152 517.91 730.511 510.05 747.273C502.19 764.034 491.489 776.818 477.947 785.625C464.406 794.432 449.065 798.835 431.925 798.835C419.425 798.835 409.055 796.752 400.817 792.585C392.578 788.419 385.949 783.4 380.93 777.528C376.006 771.562 372.171 765.928 369.425 760.625H367.294V876.818H315.874ZM366.3 685.909C366.3 700.019 368.288 712.377 372.266 722.983C376.338 733.589 382.161 741.875 389.737 747.841C397.408 753.712 406.688 756.648 417.578 756.648C428.942 756.648 438.459 753.617 446.129 747.557C453.8 741.402 459.576 733.021 463.459 722.415C467.436 711.714 469.425 699.545 469.425 685.909C469.425 672.367 467.483 660.341 463.601 649.83C459.718 639.318 453.942 631.08 446.271 625.114C438.601 619.148 429.036 616.165 417.578 616.165C406.593 616.165 397.266 619.053 389.595 624.83C381.925 630.606 376.101 638.703 372.124 649.119C368.241 659.536 366.3 671.799 366.3 685.909ZM565.874 876.818V576.818H616.442V612.898H619.425C622.076 607.595 625.817 601.96 630.646 595.994C635.476 589.934 642.01 584.773 650.249 580.511C658.487 576.155 668.999 573.977 681.783 573.977C698.639 573.977 713.838 578.286 727.379 586.903C741.016 595.426 751.811 608.068 759.766 624.83C767.815 641.496 771.839 661.951 771.839 686.193C771.839 710.152 767.91 730.511 760.05 747.273C752.19 764.034 741.489 776.818 727.947 785.625C714.406 794.432 699.065 798.835 681.925 798.835C669.425 798.835 659.055 796.752 650.817 792.585C642.578 788.419 635.949 783.4 630.93 777.528C626.006 771.562 622.171 765.928 619.425 760.625H617.294V876.818H565.874ZM616.3 685.909C616.3 700.019 618.288 712.377 622.266 722.983C626.338 733.589 632.161 741.875 639.737 747.841C647.408 753.712 656.688 756.648 667.578 756.648C678.942 756.648 688.459 753.617 696.129 747.557C703.8 741.402 709.576 733.021 713.459 722.415C717.436 711.714 719.425 699.545 719.425 685.909C719.425 672.367 717.483 660.341 713.601 649.83C709.718 639.318 703.942 631.08 696.271 625.114C688.601 619.148 679.036 616.165 667.578 616.165C656.593 616.165 647.266 619.053 639.595 624.83C631.925 630.606 626.101 638.703 622.124 649.119C618.241 659.536 616.3 671.799 616.3 685.909ZM912.464 799.261C890.589 799.261 871.697 794.716 855.788 785.625C839.974 776.439 827.805 763.466 819.283 746.705C810.76 729.848 806.499 710.009 806.499 687.188C806.499 664.744 810.76 645.047 819.283 628.097C827.9 611.051 839.927 597.794 855.362 588.324C870.798 578.759 888.932 573.977 909.766 573.977C923.213 573.977 935.902 576.155 947.834 580.511C959.86 584.773 970.466 591.402 979.652 600.398C988.932 609.394 996.224 620.852 1001.53 634.773C1006.83 648.598 1009.48 665.076 1009.48 684.205V699.972H830.646V665.312H960.192C960.097 655.464 957.966 646.705 953.8 639.034C949.633 631.269 943.809 625.161 936.328 620.71C928.942 616.259 920.324 614.034 910.476 614.034C899.964 614.034 890.732 616.591 882.777 621.705C874.822 626.723 868.62 633.352 864.169 641.591C859.813 649.735 857.588 658.684 857.493 668.438V698.693C857.493 711.383 859.813 722.273 864.453 731.364C869.093 740.36 875.58 747.273 883.913 752.102C892.247 756.837 902 759.205 913.175 759.205C920.656 759.205 927.427 758.163 933.487 756.08C939.548 753.902 944.804 750.729 949.254 746.562C953.705 742.396 957.067 737.235 959.339 731.08L1007.35 736.477C1004.32 749.167 998.544 760.246 990.021 769.716C981.593 779.091 970.798 786.383 957.635 791.591C944.472 796.705 929.415 799.261 912.464 799.261ZM1161.93 576.818V616.591H1036.51V576.818H1161.93ZM1067.47 524.545H1118.89V729.375C1118.89 736.288 1119.93 741.591 1122.02 745.284C1124.2 748.883 1127.04 751.345 1130.54 752.67C1134.04 753.996 1137.93 754.659 1142.19 754.659C1145.41 754.659 1148.34 754.422 1150.99 753.949C1153.74 753.475 1155.82 753.049 1157.24 752.67L1165.91 792.869C1163.16 793.816 1159.23 794.858 1154.12 795.994C1149.1 797.131 1142.95 797.794 1135.65 797.983C1122.77 798.362 1111.17 796.42 1100.85 792.159C1090.53 787.803 1082.34 781.08 1076.28 771.989C1070.31 762.898 1067.38 751.534 1067.47 737.898V524.545ZM1204.94 795V576.818H1256.36V795H1204.94ZM1230.79 545.852C1222.64 545.852 1215.64 543.153 1209.77 537.756C1203.89 532.263 1200.96 525.682 1200.96 518.011C1200.96 510.246 1203.89 503.665 1209.77 498.267C1215.64 492.775 1222.64 490.028 1230.79 490.028C1239.03 490.028 1246.03 492.775 1251.81 498.267C1257.68 503.665 1260.62 510.246 1260.62 518.011C1260.62 525.682 1257.68 532.263 1251.81 537.756C1246.03 543.153 1239.03 545.852 1230.79 545.852ZM1306.39 795V762.33L1418.89 621.278V619.432H1310.09V576.818H1481.82V611.903L1374.72 750.54V752.386H1485.51V795H1306.39ZM1624.18 799.261C1602.31 799.261 1583.42 794.716 1567.51 785.625C1551.69 776.439 1539.52 763.466 1531 746.705C1522.48 729.848 1518.22 710.009 1518.22 687.188C1518.22 664.744 1522.48 645.047 1531 628.097C1539.62 611.051 1551.65 597.794 1567.08 588.324C1582.52 578.759 1600.65 573.977 1621.48 573.977C1634.93 573.977 1647.62 576.155 1659.55 580.511C1671.58 584.773 1682.19 591.402 1691.37 600.398C1700.65 609.394 1707.94 620.852 1713.25 634.773C1718.55 648.598 1721.2 665.076 1721.2 684.205V699.972H1542.37V665.312H1671.91C1671.82 655.464 1669.69 646.705 1665.52 639.034C1661.35 631.269 1655.53 625.161 1648.05 620.71C1640.66 616.259 1632.04 614.034 1622.19 614.034C1611.68 614.034 1602.45 616.591 1594.5 621.705C1586.54 626.723 1580.34 633.352 1575.89 641.591C1571.53 649.735 1569.31 658.684 1569.21 668.438V698.693C1569.21 711.383 1571.53 722.273 1576.17 731.364C1580.81 740.36 1587.3 747.273 1595.63 752.102C1603.97 756.837 1613.72 759.205 1624.89 759.205C1632.37 759.205 1639.15 758.163 1645.21 756.08C1651.27 753.902 1656.52 750.729 1660.97 746.562C1665.42 742.396 1668.79 737.235 1671.06 731.08L1719.07 736.477C1716.04 749.167 1710.26 760.246 1701.74 769.716C1693.31 779.091 1682.52 786.383 1669.35 791.591C1656.19 796.705 1641.13 799.261 1624.18 799.261ZM1764.7 795V576.818H1814.56V613.182H1816.83C1820.81 600.587 1827.63 590.881 1837.29 584.062C1847.04 577.15 1858.17 573.693 1870.67 573.693C1873.51 573.693 1876.68 573.835 1880.18 574.119C1883.78 574.309 1886.77 574.64 1889.13 575.114V622.415C1886.96 621.657 1883.5 620.994 1878.76 620.426C1874.12 619.763 1869.63 619.432 1865.27 619.432C1855.89 619.432 1847.47 621.468 1839.99 625.54C1832.6 629.517 1826.78 635.057 1822.51 642.159C1818.25 649.261 1816.12 657.453 1816.12 666.733V795H1764.7ZM2095.74 634.489L2048.86 639.602C2047.54 634.867 2045.22 630.417 2041.9 626.25C2038.68 622.083 2034.33 618.722 2028.84 616.165C2023.34 613.608 2016.62 612.33 2008.66 612.33C1997.96 612.33 1988.97 614.65 1981.68 619.29C1974.48 623.93 1970.93 629.943 1971.02 637.33C1970.93 643.674 1973.25 648.835 1977.98 652.812C1982.81 656.79 1990.77 660.057 2001.85 662.614L2039.06 670.568C2059.71 675.019 2075.05 682.074 2085.09 691.733C2095.22 701.392 2100.33 714.034 2100.43 729.659C2100.33 743.39 2096.31 755.511 2088.35 766.023C2080.49 776.439 2069.55 784.583 2055.54 790.455C2041.52 796.326 2025.43 799.261 2007.24 799.261C1980.54 799.261 1959.04 793.674 1942.76 782.5C1926.47 771.231 1916.76 755.559 1913.64 735.483L1963.78 730.653C1966.05 740.502 1970.88 747.936 1978.27 752.955C1985.65 757.973 1995.27 760.483 2007.1 760.483C2019.32 760.483 2029.12 757.973 2036.51 752.955C2043.99 747.936 2047.73 741.733 2047.73 734.347C2047.73 728.097 2045.31 722.936 2040.48 718.864C2035.75 714.792 2028.36 711.667 2018.32 709.489L1981.11 701.676C1960.18 697.32 1944.7 689.981 1934.66 679.659C1924.62 669.242 1919.65 656.08 1919.74 640.17C1919.65 626.723 1923.3 615.076 1930.68 605.227C1938.16 595.284 1948.53 587.614 1961.79 582.216C1975.14 576.723 1990.53 573.977 2007.95 573.977C2033.52 573.977 2053.65 579.422 2068.32 590.312C2083.1 601.203 2092.23 615.928 2095.74 634.489Z" fill="#555555"/>
</g>
<path d="M893.966 962.045C893.966 954.233 891.385 948.314 886.224 944.29C881.063 940.218 874.08 938.182 865.273 938.182C858.833 938.182 853.033 939.223 847.872 941.307C842.711 943.39 838.497 946.255 835.23 949.901C831.963 953.546 829.951 957.689 829.193 962.33C828.578 966.212 828.98 969.55 830.401 972.344C831.821 975.09 833.833 977.386 836.438 979.233C839.089 981.032 841.93 982.524 844.96 983.707C847.991 984.844 850.784 985.767 853.341 986.477L867.545 990.455C871.097 991.449 875.05 992.822 879.406 994.574C883.762 996.326 887.834 998.717 891.622 1001.75C895.41 1004.73 898.298 1008.57 900.287 1013.25C902.323 1017.94 902.773 1023.69 901.636 1030.51C900.311 1038.37 897.067 1045.47 891.906 1051.82C886.793 1058.16 880.022 1063.21 871.594 1066.95C863.213 1070.69 853.436 1072.56 842.261 1072.56C831.845 1072.56 823.085 1070.88 815.983 1067.51C808.928 1064.15 803.72 1059.46 800.358 1053.45C797.044 1047.44 795.765 1040.45 796.523 1032.5H814.705C814.231 1037.99 815.32 1042.54 817.972 1046.14C820.623 1049.69 824.316 1052.34 829.051 1054.09C833.786 1055.8 839.042 1056.65 844.818 1056.65C851.542 1056.65 857.744 1055.56 863.426 1053.38C869.155 1051.16 873.89 1048.08 877.631 1044.15C881.419 1040.17 883.739 1035.53 884.591 1030.23C885.443 1025.4 884.78 1021.47 882.602 1018.44C880.424 1015.41 877.276 1012.95 873.156 1011.05C869.037 1009.16 864.515 1007.5 859.591 1006.08L842.545 1000.97C831.75 997.699 823.535 993.035 817.901 986.974C812.313 980.914 810.301 972.983 811.864 963.182C813.284 955.038 816.717 947.936 822.162 941.875C827.607 935.767 834.354 931.032 842.403 927.67C850.453 924.261 859.117 922.557 868.398 922.557C877.773 922.557 885.798 924.261 892.474 927.67C899.151 931.032 904.122 935.696 907.389 941.662C910.656 947.58 911.864 954.375 911.011 962.045H893.966ZM953.607 1072.56C946.694 1072.56 940.634 1071.25 935.425 1068.65C930.217 1066 926.358 1062.19 923.849 1057.22C921.339 1052.2 920.653 1046.14 921.789 1039.03C922.878 1032.78 924.985 1027.72 928.11 1023.84C931.235 1019.91 935.023 1016.83 939.474 1014.6C943.972 1012.33 948.801 1010.65 953.962 1009.56C959.171 1008.42 964.355 1007.55 969.516 1006.93C976.24 1006.08 981.709 1005.42 985.923 1004.94C990.137 1004.47 993.309 1003.69 995.44 1002.6C997.57 1001.51 998.872 999.64 999.346 996.989V996.42C1000.48 989.46 999.559 984.039 996.576 980.156C993.593 976.226 988.266 974.261 980.596 974.261C972.641 974.261 965.989 976.013 960.638 979.517C955.288 983.021 951.335 986.761 948.778 990.739L934.005 985.057C937.888 978.428 942.528 973.267 947.925 969.574C953.323 965.833 958.981 963.229 964.9 961.761C970.818 960.246 976.524 959.489 982.016 959.489C985.52 959.489 989.474 959.915 993.877 960.767C998.281 961.572 1002.4 963.253 1006.24 965.81C1010.12 968.366 1013.03 972.225 1014.97 977.386C1016.96 982.547 1017.24 989.46 1015.82 998.125L1003.89 1070H987.13L989.687 1055.23H988.835C987.319 1057.59 984.999 1060.13 981.874 1062.83C978.797 1065.53 974.89 1067.82 970.156 1069.72C965.468 1071.61 959.952 1072.56 953.607 1072.56ZM958.437 1057.5C965.066 1057.5 970.866 1056.2 975.837 1053.59C980.856 1050.99 984.881 1047.63 987.911 1043.51C990.989 1039.39 992.906 1035.06 993.664 1030.51L996.221 1015.17C995.369 1016.02 993.688 1016.8 991.178 1017.51C988.669 1018.18 985.828 1018.77 982.656 1019.29C979.531 1019.76 976.477 1020.19 973.494 1020.57C970.558 1020.9 968.191 1021.18 966.391 1021.42C961.941 1021.99 957.703 1022.91 953.678 1024.19C949.701 1025.42 946.339 1027.29 943.593 1029.8C940.894 1032.26 939.213 1035.62 938.55 1039.89C937.556 1045.71 938.953 1050.11 942.741 1053.1C946.529 1056.03 951.761 1057.5 958.437 1057.5ZM977.471 946.136L1000.2 913.182H1019.8L992.244 946.136H977.471ZM1062.04 1004.38L1051.25 1070H1034.48L1052.67 960.909H1068.86L1066.02 977.955H1067.44C1070.85 972.415 1075.46 967.964 1081.29 964.602C1087.11 961.193 1094.14 959.489 1102.38 959.489C1109.67 959.489 1115.83 961.004 1120.85 964.034C1125.91 967.017 1129.49 971.562 1131.57 977.67C1133.7 983.731 1134.01 991.402 1132.5 1000.68L1120.85 1070H1104.09L1115.45 1001.82C1116.87 993.295 1115.76 986.619 1112.11 981.79C1108.51 976.96 1102.81 974.545 1095 974.545C1089.6 974.545 1084.6 975.705 1080.01 978.026C1075.46 980.346 1071.61 983.731 1068.43 988.182C1065.31 992.633 1063.18 998.03 1062.04 1004.38ZM1192.53 1072.27C1183.39 1072.27 1175.72 1069.98 1169.52 1065.38C1163.31 1060.74 1158.93 1054.21 1156.38 1045.78C1153.87 1037.31 1153.56 1027.29 1155.45 1015.74C1157.4 1004.28 1161.02 994.337 1166.32 985.909C1171.67 977.481 1178.23 970.971 1185.99 966.378C1193.76 961.785 1202.23 959.489 1211.42 959.489C1218.52 959.489 1223.94 960.672 1227.68 963.04C1231.47 965.36 1234.22 968.011 1235.92 970.994C1237.63 973.93 1238.93 976.345 1239.83 978.239H1241.25L1250.2 924.545H1266.96L1242.81 1070H1226.62L1229.46 1053.24H1227.47C1225.91 1055.23 1223.73 1057.74 1220.94 1060.77C1218.14 1063.75 1214.45 1066.43 1209.86 1068.79C1205.31 1071.11 1199.54 1072.27 1192.53 1072.27ZM1196.65 1057.22C1203.37 1057.22 1209.38 1055.46 1214.69 1051.96C1220.04 1048.41 1224.49 1043.51 1228.04 1037.26C1231.59 1030.96 1234.05 1023.69 1235.43 1015.45C1236.8 1007.31 1236.75 1000.18 1235.28 994.077C1233.82 987.921 1231 983.139 1226.83 979.73C1222.67 976.274 1217.15 974.545 1210.28 974.545C1203.23 974.545 1197.1 976.368 1191.89 980.014C1186.68 983.613 1182.44 988.513 1179.18 994.716C1175.91 1000.87 1173.64 1007.78 1172.36 1015.45C1171.08 1023.22 1171.06 1030.27 1172.29 1036.62C1173.52 1042.92 1176.12 1047.94 1180.1 1051.68C1184.12 1055.37 1189.64 1057.22 1196.65 1057.22ZM1300.41 1070L1285.35 960.909H1302.97L1312.63 1044.43H1313.76L1350.98 960.909H1368.88L1377.97 1044.15H1379.1L1416.6 960.909H1434.22L1382.8 1070H1366.32L1356.38 986.193H1354.67L1316.89 1070H1300.41ZM1438.2 1070L1456.38 960.909H1473.14L1454.96 1070H1438.2ZM1469.87 942.443C1466.6 942.443 1463.79 941.33 1461.42 939.105C1459.1 936.88 1457.94 934.205 1457.94 931.08C1457.94 927.955 1459.1 925.279 1461.42 923.054C1463.79 920.829 1466.6 919.716 1469.87 919.716C1473.14 919.716 1475.93 920.829 1478.25 923.054C1480.62 925.279 1481.8 927.955 1481.8 931.08C1481.8 934.205 1480.62 936.88 1478.25 939.105C1475.93 941.33 1473.14 942.443 1469.87 942.443ZM1529.69 1072.27C1519.42 1072.27 1510.99 1069.86 1504.41 1065.03C1497.87 1060.2 1493.33 1053.55 1490.77 1045.07C1488.21 1036.6 1487.83 1026.91 1489.63 1016.02C1491.43 1004.94 1495.08 995.166 1500.57 986.69C1506.06 978.168 1512.91 971.515 1521.1 966.733C1529.29 961.903 1538.31 959.489 1548.16 959.489C1555.83 959.489 1562.5 960.909 1568.18 963.75C1573.87 966.591 1578.25 970.568 1581.32 975.682C1584.4 980.795 1585.85 986.761 1585.66 993.58H1568.89C1568.42 988.608 1566.29 984.205 1562.5 980.369C1558.76 976.487 1553.22 974.545 1545.88 974.545C1539.35 974.545 1533.34 976.25 1527.84 979.659C1522.35 983.021 1517.73 987.779 1513.99 993.935C1510.25 1000.04 1507.72 1007.22 1506.39 1015.45C1504.97 1023.88 1505.09 1031.22 1506.75 1037.47C1508.41 1043.72 1511.41 1048.57 1515.77 1052.03C1520.13 1055.49 1525.62 1057.22 1532.25 1057.22C1536.6 1057.22 1540.68 1056.46 1544.46 1054.94C1548.25 1053.43 1551.61 1051.25 1554.55 1048.41C1557.48 1045.57 1559.8 1042.16 1561.51 1038.18H1578.27C1576.19 1044.62 1572.85 1050.42 1568.26 1055.58C1563.66 1060.7 1558.1 1064.77 1551.57 1067.8C1545.03 1070.78 1537.74 1072.27 1529.69 1072.27ZM1624.93 1004.38L1614.14 1070H1597.38L1621.52 924.545H1638.28L1629.48 977.955H1630.9C1634.31 972.273 1638.85 967.775 1644.53 964.46C1650.26 961.146 1657.46 959.489 1666.12 959.489C1673.51 959.489 1679.74 960.98 1684.8 963.963C1689.92 966.899 1693.52 971.42 1695.6 977.528C1697.73 983.589 1698.04 991.307 1696.52 1000.68L1684.88 1070H1668.11L1679.48 1001.82C1680.9 993.153 1679.74 986.454 1676 981.719C1672.3 976.937 1666.55 974.545 1658.74 974.545C1653.25 974.545 1648.13 975.705 1643.4 978.026C1638.71 980.346 1634.73 983.731 1631.47 988.182C1628.25 992.633 1626.07 998.03 1624.93 1004.38ZM1760.99 1072.27C1750.53 1072.27 1741.89 1069.95 1735.07 1065.31C1728.25 1060.62 1723.49 1054.09 1720.79 1045.71C1718.1 1037.28 1717.67 1027.48 1719.52 1016.31C1721.36 1005.13 1725.03 995.284 1730.52 986.761C1736.02 978.191 1742.86 971.515 1751.05 966.733C1759.24 961.903 1768.24 959.489 1778.04 959.489C1783.72 959.489 1789.19 960.436 1794.45 962.33C1799.7 964.223 1804.25 967.301 1808.08 971.562C1811.92 975.777 1814.59 981.364 1816.11 988.324C1817.62 995.284 1817.53 1003.85 1815.82 1014.03L1814.69 1021.14H1730.6L1732.87 1006.65H1799.91C1801 1000.49 1800.72 995 1799.06 990.17C1797.45 985.341 1794.63 981.529 1790.61 978.736C1786.63 975.942 1781.59 974.545 1775.48 974.545C1769.18 974.545 1763.31 976.25 1757.87 979.659C1752.42 983.021 1747.88 987.282 1744.23 992.443C1740.59 997.557 1738.31 1002.77 1737.41 1008.07L1735.43 1020.57C1734 1029.61 1734.22 1036.81 1736.06 1042.16C1737.96 1047.51 1741.25 1051.37 1745.94 1053.74C1750.62 1056.06 1756.5 1057.22 1763.55 1057.22C1768.05 1057.22 1772.19 1056.6 1775.98 1055.37C1779.77 1054.09 1783.15 1052.2 1786.14 1049.69C1789.12 1047.13 1791.63 1043.96 1793.66 1040.17L1809 1044.72C1806.4 1050.21 1802.73 1055.04 1798 1059.2C1793.31 1063.32 1787.82 1066.54 1781.52 1068.86C1775.27 1071.14 1768.43 1072.27 1760.99 1072.27ZM1923.81 985.341L1907.9 989.602C1907.34 987.045 1906.34 984.583 1904.92 982.216C1903.55 979.801 1901.42 977.836 1898.53 976.321C1895.69 974.759 1891.81 973.977 1886.88 973.977C1880.21 973.977 1874.41 975.516 1869.48 978.594C1864.56 981.624 1861.74 985.483 1861.03 990.17C1860.32 994.29 1861.27 997.58 1863.87 1000.04C1866.47 1002.5 1870.83 1004.52 1876.94 1006.08L1892.56 1010.06C1901.94 1012.47 1908.61 1016.09 1912.59 1020.92C1916.62 1025.71 1917.99 1031.93 1916.71 1039.6C1915.67 1045.85 1912.95 1051.44 1908.54 1056.36C1904.14 1061.29 1898.51 1065.17 1891.64 1068.01C1884.77 1070.85 1877.13 1072.27 1868.7 1072.27C1857.48 1072.27 1848.62 1069.86 1842.14 1065.03C1835.65 1060.15 1832.19 1053.1 1831.77 1043.86L1848.53 1039.89C1848.96 1045.71 1851.04 1050.11 1854.78 1053.1C1858.57 1056.03 1863.87 1057.5 1870.69 1057.5C1878.5 1057.5 1885.01 1055.84 1890.22 1052.53C1895.43 1049.17 1898.39 1045.14 1899.1 1040.45C1899.81 1036.62 1899.05 1033.42 1896.82 1030.87C1894.65 1028.31 1890.86 1026.39 1885.46 1025.11L1868.13 1020.85C1858.47 1018.44 1851.7 1014.74 1847.82 1009.77C1843.98 1004.8 1842.71 998.551 1843.98 991.023C1845.03 984.867 1847.68 979.422 1851.94 974.688C1856.25 969.953 1861.64 966.236 1868.13 963.537C1874.67 960.838 1881.77 959.489 1889.44 959.489C1900.23 959.489 1908.31 961.856 1913.66 966.591C1919.01 971.278 1922.39 977.528 1923.81 985.341ZM1997.2 1110.91C1994.36 1110.91 1991.85 1110.67 1989.67 1110.2C1987.54 1109.77 1986.07 1109.35 1985.27 1108.92L1992.08 1094.15C1995.97 1095.19 1999.42 1095.5 2002.45 1095.07C2005.53 1094.69 2008.44 1093.2 2011.19 1090.6C2013.98 1088.04 2016.89 1084.02 2019.92 1078.52L2024.61 1070L2002.74 960.909H2020.21L2035.83 1048.12H2036.97L2081.57 960.909H2100.46L2033.56 1085.77C2030.44 1091.59 2027 1096.35 2023.26 1100.04C2019.52 1103.74 2015.47 1106.46 2011.12 1108.21C2006.76 1110.01 2002.12 1110.91 1997.2 1110.91ZM2187.08 924.545H2208.1L2237.64 1045.28H2239.35L2308.67 924.545H2329.69L2305.54 1070H2289.07L2307.53 959.489H2306.11L2242.19 1070H2226.28L2199.29 959.489H2197.87L2179.41 1070H2162.93L2187.08 924.545ZM2370.4 1072.56C2363.49 1072.56 2357.43 1071.25 2352.22 1068.65C2347.01 1066 2343.16 1062.19 2340.65 1057.22C2338.14 1052.2 2337.45 1046.14 2338.59 1039.03C2339.67 1032.78 2341.78 1027.72 2344.91 1023.84C2348.03 1019.91 2351.82 1016.83 2356.27 1014.6C2360.77 1012.33 2365.6 1010.65 2370.76 1009.56C2375.97 1008.42 2381.15 1007.55 2386.31 1006.93C2393.04 1006.08 2398.51 1005.42 2402.72 1004.94C2406.93 1004.47 2410.11 1003.69 2412.24 1002.6C2414.37 1001.51 2415.67 999.64 2416.14 996.989V996.42C2417.28 989.46 2416.36 984.039 2413.37 980.156C2410.39 976.226 2405.06 974.261 2397.39 974.261C2389.44 974.261 2382.79 976.013 2377.44 979.517C2372.08 983.021 2368.13 986.761 2365.57 990.739L2350.8 985.057C2354.68 978.428 2359.32 973.267 2364.72 969.574C2370.12 965.833 2375.78 963.229 2381.7 961.761C2387.62 960.246 2393.32 959.489 2398.81 959.489C2402.32 959.489 2406.27 959.915 2410.67 960.767C2415.08 961.572 2419.2 963.253 2423.03 965.81C2426.91 968.366 2429.83 972.225 2431.77 977.386C2433.76 982.547 2434.04 989.46 2432.62 998.125L2420.69 1070H2403.93L2406.48 1055.23H2405.63C2404.12 1057.59 2401.8 1060.13 2398.67 1062.83C2395.59 1065.53 2391.69 1067.82 2386.95 1069.72C2382.26 1071.61 2376.75 1072.56 2370.4 1072.56ZM2375.23 1057.5C2381.86 1057.5 2387.66 1056.2 2392.63 1053.59C2397.65 1050.99 2401.68 1047.63 2404.71 1043.51C2407.79 1039.39 2409.7 1035.06 2410.46 1030.51L2413.02 1015.17C2412.17 1016.02 2410.48 1016.8 2407.98 1017.51C2405.47 1018.18 2402.62 1018.77 2399.45 1019.29C2396.33 1019.76 2393.27 1020.19 2390.29 1020.57C2387.35 1020.9 2384.99 1021.18 2383.19 1021.42C2378.74 1021.99 2374.5 1022.91 2370.48 1024.19C2366.5 1025.42 2363.14 1027.29 2360.39 1029.8C2357.69 1032.26 2356.01 1035.62 2355.35 1039.89C2354.35 1045.71 2355.75 1050.11 2359.54 1053.1C2363.33 1056.03 2368.56 1057.5 2375.23 1057.5ZM2394.27 946.136L2417 913.182H2436.6L2409.04 946.136H2394.27ZM2542.76 985.341L2526.85 989.602C2526.28 987.045 2525.29 984.583 2523.87 982.216C2522.49 979.801 2520.36 977.836 2517.47 976.321C2514.63 974.759 2510.75 973.977 2505.83 973.977C2499.15 973.977 2493.35 975.516 2488.43 978.594C2483.5 981.624 2480.68 985.483 2479.97 990.17C2479.26 994.29 2480.21 997.58 2482.82 1000.04C2485.42 1002.5 2489.78 1004.52 2495.88 1006.08L2511.51 1010.06C2520.88 1012.47 2527.56 1016.09 2531.54 1020.92C2535.56 1025.71 2536.93 1031.93 2535.66 1039.6C2534.61 1045.85 2531.89 1051.44 2527.49 1056.36C2523.09 1061.29 2517.45 1065.17 2510.59 1068.01C2503.72 1070.85 2496.07 1072.27 2487.64 1072.27C2476.42 1072.27 2467.57 1069.86 2461.08 1065.03C2454.6 1060.15 2451.14 1053.1 2450.71 1043.86L2467.47 1039.89C2467.9 1045.71 2469.98 1050.11 2473.72 1053.1C2477.51 1056.03 2482.82 1057.5 2489.63 1057.5C2497.45 1057.5 2503.96 1055.84 2509.16 1052.53C2514.37 1049.17 2517.33 1045.14 2518.04 1040.45C2518.75 1036.62 2518 1033.42 2515.77 1030.87C2513.59 1028.31 2509.8 1026.39 2504.41 1025.11L2487.08 1020.85C2477.42 1018.44 2470.65 1014.74 2466.76 1009.77C2462.93 1004.8 2461.65 998.551 2462.93 991.023C2463.97 984.867 2466.62 979.422 2470.88 974.688C2475.19 969.953 2480.59 966.236 2487.08 963.537C2493.61 960.838 2500.71 959.489 2508.38 959.489C2519.18 959.489 2527.25 961.856 2532.6 966.591C2537.95 971.278 2541.34 977.528 2542.76 985.341Z" fill="#555555"/>
<defs>
<clipPath id="clip0_99_30">
<rect width="1320" height="1320" fill="white" transform="translate(420)"/>
</clipPath>
</defs>
</svg>
