<svg width="2821" height="1356" viewBox="0 0 2821 1356" fill="none" xmlns="http://www.w3.org/2000/svg">
<path d="M0 964C0 647.541 256.541 391 573 391H2740V391C2740 707.459 2483.46 964 2167 964H0V964Z" fill="#4A4A4A"/>
<circle cx="1682" cy="678" r="576" fill="#159550"/>
<circle cx="1344" cy="678" r="678" fill="#1ECC55"/>
<path d="M1101.5 1010.8C1101.74 1004.89 1100.01 1000.32 1096.32 997.097C1092.67 993.877 1087.16 992.267 1079.77 992.267C1074.75 992.267 1070.39 992.977 1066.7 994.398C1063.01 995.771 1060.05 997.688 1057.82 1000.15C1055.65 1002.57 1054.3 1005.36 1053.78 1008.53C1053.25 1011.14 1053.42 1013.41 1054.27 1015.35C1055.17 1017.29 1056.57 1018.97 1058.46 1020.39C1060.4 1021.77 1062.7 1022.97 1065.35 1024.01C1068 1025.01 1070.82 1025.86 1073.8 1026.57L1086.3 1029.7C1092.41 1031.12 1097.9 1033.01 1102.78 1035.38C1107.71 1037.75 1111.82 1040.66 1115.14 1044.11C1118.5 1047.57 1120.87 1051.64 1122.24 1056.33C1123.61 1061.02 1123.8 1066.39 1122.81 1072.45C1121.29 1081.35 1117.77 1089.07 1112.23 1095.61C1106.69 1102.09 1099.42 1107.13 1090.42 1110.73C1081.43 1114.28 1071.01 1116.06 1059.17 1116.06C1047.43 1116.06 1037.51 1114.26 1029.41 1110.66C1021.32 1107.06 1015.42 1101.74 1011.73 1094.68C1008.08 1087.58 1007 1078.8 1008.46 1068.33H1038.22C1037.7 1073.21 1038.41 1077.28 1040.35 1080.55C1042.34 1083.77 1045.3 1086.21 1049.23 1087.86C1053.16 1089.47 1057.78 1090.28 1063.08 1090.28C1068.34 1090.28 1073 1089.52 1077.07 1088.01C1081.19 1086.49 1084.53 1084.38 1087.09 1081.68C1089.64 1078.99 1091.2 1075.88 1091.77 1072.38C1092.34 1069.11 1091.84 1066.37 1090.28 1064.14C1088.72 1061.92 1086.21 1060.02 1082.75 1058.46C1079.34 1056.85 1075.11 1055.43 1070.04 1054.2L1054.84 1050.22C1043.1 1047.24 1034.22 1042.57 1028.21 1036.23C1022.19 1029.89 1020.04 1021.34 1021.74 1010.59C1023.26 1001.78 1026.93 994.09 1032.75 987.509C1038.62 980.88 1046.01 975.742 1054.91 972.097C1063.86 968.403 1073.64 966.557 1084.24 966.557C1095.04 966.557 1104.15 968.427 1111.59 972.168C1119.02 975.861 1124.44 981.022 1127.85 987.651C1131.26 994.279 1132.3 1002 1130.98 1010.8H1101.5ZM1166.86 1116.06C1159.95 1116.06 1153.96 1114.85 1148.89 1112.44C1143.87 1109.98 1140.18 1106.33 1137.81 1101.5C1135.45 1096.67 1134.85 1090.68 1136.04 1083.53C1137.08 1077.47 1139.04 1072.4 1141.93 1068.33C1144.87 1064.21 1148.44 1060.9 1152.66 1058.39C1156.87 1055.88 1161.53 1053.96 1166.65 1052.64C1171.81 1051.31 1177.14 1050.41 1182.63 1049.94C1188.97 1049.27 1194.13 1048.64 1198.11 1048.02C1202.14 1047.4 1205.14 1046.53 1207.13 1045.39C1209.12 1044.21 1210.33 1042.46 1210.75 1040.14V1039.71C1211.46 1035.26 1210.64 1031.8 1208.27 1029.34C1205.95 1026.83 1202.23 1025.58 1197.12 1025.58C1191.72 1025.58 1187.13 1026.76 1183.34 1029.13C1179.6 1031.5 1176.92 1034.5 1175.31 1038.15L1147.76 1035.88C1150.22 1029.25 1153.94 1023.52 1158.91 1018.69C1163.93 1013.81 1169.96 1010.07 1177.02 1007.47C1184.07 1004.81 1191.98 1003.49 1200.74 1003.49C1206.8 1003.49 1212.46 1004.2 1217.71 1005.62C1223.02 1007.04 1227.59 1009.24 1231.42 1012.22C1235.3 1015.21 1238.1 1019.04 1239.8 1023.73C1241.55 1028.37 1241.91 1033.93 1240.87 1040.42L1228.58 1114H1199.89L1202.44 1098.87H1201.59C1199.27 1102.28 1196.43 1105.29 1193.07 1107.89C1189.71 1110.45 1185.85 1112.46 1181.49 1113.93C1177.14 1115.35 1172.26 1116.06 1166.86 1116.06ZM1179.01 1095.18C1183.41 1095.18 1187.46 1094.3 1191.15 1092.55C1194.89 1090.75 1197.97 1088.34 1200.38 1085.31C1202.85 1082.28 1204.41 1078.84 1205.07 1075.01L1206.92 1063.43C1205.97 1064.05 1204.6 1064.59 1202.8 1065.07C1201.05 1065.54 1199.13 1065.99 1197.05 1066.41C1195.01 1066.79 1192.95 1067.15 1190.87 1067.48C1188.78 1067.76 1186.91 1068.05 1185.26 1068.33C1181.61 1068.85 1178.34 1069.68 1175.46 1070.82C1172.57 1071.95 1170.22 1073.49 1168.42 1075.43C1166.62 1077.33 1165.51 1079.7 1165.09 1082.54C1164.42 1086.66 1165.39 1089.8 1168 1091.98C1170.65 1094.11 1174.32 1095.18 1179.01 1095.18ZM1192.78 990.847L1213.31 958.531H1241.29L1214.23 990.847H1192.78ZM1292.96 1050.93L1282.45 1114H1252.27L1270.45 1004.91H1299.21L1296.09 1024.16H1297.29C1300.75 1017.76 1305.63 1012.72 1311.93 1009.03C1318.27 1005.34 1325.49 1003.49 1333.59 1003.49C1341.16 1003.49 1347.48 1005.15 1352.55 1008.46C1357.66 1011.77 1361.26 1016.49 1363.35 1022.59C1365.48 1028.7 1365.83 1036.02 1364.41 1044.54L1352.76 1114H1322.51L1333.23 1049.94C1334.32 1043.26 1333.47 1038.05 1330.68 1034.31C1327.93 1030.52 1323.5 1028.63 1317.39 1028.63C1313.32 1028.63 1309.58 1029.51 1306.17 1031.26C1302.76 1033.01 1299.9 1035.57 1297.58 1038.93C1295.31 1042.24 1293.77 1046.24 1292.96 1050.93ZM1416.52 1115.78C1408.19 1115.78 1401.02 1113.64 1395 1109.38C1389.04 1105.07 1384.78 1098.75 1382.22 1090.42C1379.71 1082.04 1379.47 1071.77 1381.51 1059.6C1383.59 1047.1 1387.33 1036.7 1392.73 1028.42C1398.13 1020.08 1404.52 1013.86 1411.91 1009.74C1419.29 1005.57 1426.99 1003.49 1434.99 1003.49C1441.05 1003.49 1445.95 1004.53 1449.69 1006.61C1453.48 1008.65 1456.39 1011.21 1458.43 1014.28C1460.46 1017.31 1461.88 1020.3 1462.69 1023.23H1463.61L1472.77 968.545H1502.96L1478.81 1114H1448.98L1451.89 1096.53H1450.62C1448.72 1099.56 1446.21 1102.57 1443.09 1105.55C1440.01 1108.48 1436.27 1110.92 1431.87 1112.86C1427.51 1114.8 1422.4 1115.78 1416.52 1115.78ZM1429.88 1091.7C1434.71 1091.7 1439.06 1090.37 1442.94 1087.72C1446.83 1085.02 1450.09 1081.26 1452.75 1076.43C1455.4 1071.6 1457.24 1065.94 1458.29 1059.45C1459.37 1052.97 1459.4 1047.33 1458.36 1042.55C1457.31 1037.77 1455.28 1034.08 1452.25 1031.47C1449.27 1028.87 1445.31 1027.57 1440.39 1027.57C1435.42 1027.57 1431.01 1028.91 1427.18 1031.61C1423.39 1034.31 1420.24 1038.05 1417.73 1042.84C1415.27 1047.62 1413.52 1053.16 1412.48 1059.45C1411.43 1065.8 1411.36 1071.41 1412.26 1076.29C1413.16 1081.12 1415.08 1084.9 1418.02 1087.65C1420.95 1090.35 1424.9 1091.7 1429.88 1091.7ZM1525.14 1114L1513.63 1004.91H1544.24L1548.93 1078.2H1549.92L1579.75 1004.91H1609.79L1615.48 1077.78H1616.4L1645.24 1004.91H1675.77L1627.98 1114H1595.95L1588.56 1045.39H1587.21L1557.1 1114H1525.14ZM1673.73 1114L1691.91 1004.91H1722.17L1703.99 1114H1673.73ZM1710.17 990.705C1705.67 990.705 1701.95 989.213 1699.02 986.23C1696.13 983.2 1694.95 979.601 1695.47 975.435C1695.99 971.173 1698.02 967.575 1701.57 964.639C1705.13 961.656 1709.15 960.165 1713.65 960.165C1718.15 960.165 1721.82 961.656 1724.66 964.639C1727.5 967.575 1728.68 971.173 1728.21 975.435C1727.73 979.601 1725.72 983.2 1722.17 986.23C1718.67 989.213 1714.67 990.705 1710.17 990.705ZM1777.23 1116.13C1766.01 1116.13 1756.78 1113.76 1749.53 1109.03C1742.33 1104.25 1737.29 1097.62 1734.4 1089.14C1731.56 1080.67 1731.07 1070.91 1732.91 1059.88C1734.71 1048.71 1738.48 1038.91 1744.21 1030.48C1749.93 1022 1757.2 1015.4 1766.01 1010.66C1774.86 1005.88 1784.81 1003.49 1795.84 1003.49C1805.36 1003.49 1813.41 1005.22 1819.99 1008.67C1826.57 1012.13 1831.4 1016.98 1834.48 1023.23C1837.55 1029.48 1838.59 1036.82 1837.6 1045.25H1809.12C1809.17 1039.85 1807.77 1035.47 1804.93 1032.11C1802.09 1028.75 1797.92 1027.07 1792.43 1027.07C1787.69 1027.07 1783.34 1028.35 1779.36 1030.9C1775.43 1033.41 1772.09 1037.08 1769.35 1041.91C1766.65 1046.74 1764.75 1052.59 1763.67 1059.45C1762.53 1066.41 1762.51 1072.33 1763.59 1077.21C1764.68 1082.09 1766.77 1085.8 1769.84 1088.36C1772.92 1090.92 1776.8 1092.2 1781.49 1092.2C1785 1092.2 1788.24 1091.49 1791.22 1090.07C1794.25 1088.64 1796.9 1086.59 1799.18 1083.89C1801.45 1081.14 1803.2 1077.85 1804.43 1074.01H1832.98C1831.04 1082.39 1827.51 1089.73 1822.4 1096.03C1817.33 1102.33 1810.97 1107.25 1803.3 1110.8C1795.63 1114.36 1786.94 1116.13 1777.23 1116.13ZM1886.52 1050.93L1876.01 1114H1845.82L1869.97 968.545H1899.3L1890.21 1024.16H1891.42C1894.92 1017.72 1899.73 1012.67 1905.84 1009.03C1911.94 1005.34 1919.16 1003.49 1927.5 1003.49C1935.07 1003.49 1941.39 1005.15 1946.46 1008.46C1951.57 1011.73 1955.2 1016.44 1957.33 1022.59C1959.46 1028.7 1959.81 1036.02 1958.39 1044.54L1946.74 1114H1916.56L1927.21 1049.94C1928.3 1043.21 1927.43 1037.98 1924.59 1034.24C1921.79 1030.5 1917.34 1028.63 1911.23 1028.63C1907.11 1028.63 1903.33 1029.51 1899.87 1031.26C1896.41 1033.01 1893.5 1035.57 1891.13 1038.93C1888.81 1042.24 1887.27 1046.24 1886.52 1050.93ZM2019.84 1116.13C2008.67 1116.13 1999.41 1113.86 1992.07 1109.31C1984.74 1104.72 1979.57 1098.23 1976.59 1089.85C1973.66 1081.42 1973.16 1071.46 1975.1 1059.95C1976.99 1048.73 1980.81 1038.88 1986.53 1030.41C1992.31 1021.93 1999.56 1015.33 2008.27 1010.59C2016.98 1005.86 2026.69 1003.49 2037.39 1003.49C2044.58 1003.49 2051.09 1004.65 2056.92 1006.97C2062.79 1009.24 2067.67 1012.7 2071.55 1017.34C2075.43 1021.93 2078.08 1027.68 2079.5 1034.6C2080.97 1041.51 2080.95 1049.61 2079.43 1058.89L2078.08 1067.2H1986.04L1988.95 1048.45H2052.59C2053.3 1044.09 2053.01 1040.23 2051.73 1036.87C2050.46 1033.51 2048.32 1030.88 2045.34 1028.99C2042.36 1027.04 2038.69 1026.07 2034.33 1026.07C2029.88 1026.07 2025.72 1027.16 2021.83 1029.34C2017.95 1031.52 2014.68 1034.38 2012.03 1037.93C2009.43 1041.44 2007.75 1045.25 2006.99 1049.37L2003.65 1067.98C2002.7 1073.71 2002.89 1078.46 2004.22 1082.25C2005.59 1086.04 2007.96 1088.88 2011.32 1090.78C2014.68 1092.62 2018.94 1093.55 2024.11 1093.55C2027.47 1093.55 2030.62 1093.07 2033.55 1092.12C2036.53 1091.18 2039.19 1089.78 2041.51 1087.93C2043.83 1086.04 2045.72 1083.7 2047.19 1080.9L2074.82 1082.75C2072.26 1089.47 2068.38 1095.34 2063.17 1100.36C2057.96 1105.34 2051.69 1109.22 2044.35 1112.01C2037.06 1114.76 2028.89 1116.13 2019.84 1116.13ZM2193.76 1036.02L2166.28 1037.72C2166.13 1035.31 2165.47 1033.15 2164.29 1031.26C2163.15 1029.32 2161.47 1027.78 2159.24 1026.64C2157.07 1025.51 2154.32 1024.94 2151.01 1024.94C2146.03 1024.94 2141.61 1026.07 2137.72 1028.35C2133.84 1030.62 2131.64 1033.53 2131.12 1037.08C2130.69 1039.36 2131.29 1041.27 2132.89 1042.84C2134.5 1044.4 2137.75 1045.72 2142.62 1046.81L2161.8 1050.79C2172.03 1052.97 2179.41 1056.59 2183.96 1061.66C2188.55 1066.72 2190.19 1073.35 2188.86 1081.54C2187.68 1088.5 2184.62 1094.59 2179.7 1099.8C2174.77 1104.96 2168.52 1108.98 2160.95 1111.87C2153.37 1114.71 2144.97 1116.13 2135.74 1116.13C2120.92 1116.13 2109.65 1113.1 2101.93 1107.04C2094.21 1100.98 2090.49 1092.76 2090.78 1082.39L2120.32 1080.83C2120.56 1085.28 2122.12 1088.64 2125.01 1090.92C2127.9 1093.14 2131.85 1094.28 2136.87 1094.33C2142.51 1094.42 2147.29 1093.26 2151.22 1090.85C2155.2 1088.38 2157.45 1085.4 2157.97 1081.9C2158.34 1079.44 2157.63 1077.45 2155.84 1075.93C2154.08 1074.42 2150.86 1073.16 2146.18 1072.17L2127.99 1068.4C2117.67 1066.27 2110.26 1062.46 2105.76 1056.97C2101.27 1051.48 2099.73 1044.49 2101.15 1036.02C2102.28 1029.25 2105.1 1023.45 2109.6 1018.62C2114.14 1013.74 2119.99 1010 2127.14 1007.39C2134.34 1004.79 2142.46 1003.49 2151.5 1003.49C2165.66 1003.49 2176.31 1006.4 2183.46 1012.22C2190.66 1018.05 2194.09 1025.98 2193.76 1036.02ZM2260.74 1154.91C2256.85 1154.91 2253.3 1154.6 2250.08 1153.99C2246.86 1153.42 2244.21 1152.68 2242.13 1151.78L2252.78 1129.2C2256.14 1130.29 2259.2 1130.86 2261.94 1130.9C2264.74 1130.95 2267.29 1130.24 2269.61 1128.77C2271.93 1127.3 2274.06 1124.89 2276.01 1121.53L2278.7 1116.91L2258.25 1004.91H2288.93L2298.16 1085.16H2299.3L2335.45 1004.91H2368.62L2306.19 1125.79C2303.11 1131.71 2299.47 1136.85 2295.25 1141.2C2291.09 1145.56 2286.14 1148.92 2280.41 1151.29C2274.73 1153.7 2268.17 1154.91 2260.74 1154.91ZM2436.93 968.545H2474.85L2498.79 1066.27H2500.49L2556.67 968.545H2594.6L2570.45 1114H2540.62L2556.39 1019.33H2555.11L2501.98 1113.29H2481.6L2459.72 1018.97H2458.52L2442.61 1114H2412.78L2436.93 968.545ZM2626.04 1116.06C2619.13 1116.06 2613.14 1114.85 2608.07 1112.44C2603.05 1109.98 2599.36 1106.33 2596.99 1101.5C2594.63 1096.67 2594.03 1090.68 2595.22 1083.53C2596.26 1077.47 2598.22 1072.4 2601.11 1068.33C2604.05 1064.21 2607.62 1060.9 2611.84 1058.39C2616.05 1055.88 2620.71 1053.96 2625.83 1052.64C2630.99 1051.31 2636.32 1050.41 2641.81 1049.94C2648.15 1049.27 2653.31 1048.64 2657.29 1048.02C2661.32 1047.4 2664.32 1046.53 2666.31 1045.39C2668.3 1044.21 2669.51 1042.46 2669.93 1040.14V1039.71C2670.64 1035.26 2669.81 1031.8 2667.45 1029.34C2665.13 1026.83 2661.41 1025.58 2656.3 1025.58C2650.9 1025.58 2646.31 1026.76 2642.52 1029.13C2638.78 1031.5 2636.1 1034.5 2634.49 1038.15L2606.94 1035.88C2609.4 1029.25 2613.12 1023.52 2618.09 1018.69C2623.11 1013.81 2629.14 1010.07 2636.2 1007.47C2643.25 1004.81 2651.16 1003.49 2659.92 1003.49C2665.98 1003.49 2671.64 1004.2 2676.89 1005.62C2682.2 1007.04 2686.77 1009.24 2690.6 1012.22C2694.48 1015.21 2697.28 1019.04 2698.98 1023.73C2700.73 1028.37 2701.09 1033.93 2700.05 1040.42L2687.76 1114H2659.07L2661.62 1098.87H2660.77C2658.45 1102.28 2655.61 1105.29 2652.25 1107.89C2648.89 1110.45 2645.03 1112.46 2640.67 1113.93C2636.32 1115.35 2631.44 1116.06 2626.04 1116.06ZM2638.19 1095.18C2642.59 1095.18 2646.64 1094.3 2650.33 1092.55C2654.07 1090.75 2657.15 1088.34 2659.56 1085.31C2662.03 1082.28 2663.59 1078.84 2664.25 1075.01L2666.1 1063.43C2665.15 1064.05 2663.78 1064.59 2661.98 1065.07C2660.23 1065.54 2658.31 1065.99 2656.23 1066.41C2654.19 1066.79 2652.13 1067.15 2650.05 1067.48C2647.96 1067.76 2646.09 1068.05 2644.44 1068.33C2640.79 1068.85 2637.52 1069.68 2634.63 1070.82C2631.75 1071.95 2629.4 1073.49 2627.6 1075.43C2625.8 1077.33 2624.69 1079.7 2624.27 1082.54C2623.6 1086.66 2624.57 1089.8 2627.18 1091.98C2629.83 1094.11 2633.5 1095.18 2638.19 1095.18ZM2651.96 990.847L2672.49 958.531H2700.47L2673.41 990.847H2651.96ZM2814.86 1036.02L2787.37 1037.72C2787.23 1035.31 2786.56 1033.15 2785.38 1031.26C2784.24 1029.32 2782.56 1027.78 2780.34 1026.64C2778.16 1025.51 2775.41 1024.94 2772.1 1024.94C2767.13 1024.94 2762.7 1026.07 2758.82 1028.35C2754.94 1030.62 2752.73 1033.53 2752.21 1037.08C2751.79 1039.36 2752.38 1041.27 2753.99 1042.84C2755.6 1044.4 2758.84 1045.72 2763.72 1046.81L2782.89 1050.79C2793.12 1052.97 2800.51 1056.59 2805.05 1061.66C2809.65 1066.72 2811.28 1073.35 2809.95 1081.54C2808.77 1088.5 2805.72 1094.59 2800.79 1099.8C2795.87 1104.96 2789.62 1108.98 2782.04 1111.87C2774.47 1114.71 2766.06 1116.13 2756.83 1116.13C2742.01 1116.13 2730.74 1113.1 2723.02 1107.04C2715.3 1100.98 2711.59 1092.76 2711.87 1082.39L2741.42 1080.83C2741.65 1085.28 2743.22 1088.64 2746.11 1090.92C2748.99 1093.14 2752.95 1094.28 2757.97 1094.33C2763.6 1094.42 2768.38 1093.26 2772.31 1090.85C2776.29 1088.38 2778.54 1085.4 2779.06 1081.9C2779.44 1079.44 2778.73 1077.45 2776.93 1075.93C2775.18 1074.42 2771.96 1073.16 2767.27 1072.17L2749.09 1068.4C2738.77 1066.27 2731.36 1062.46 2726.86 1056.97C2722.36 1051.48 2720.82 1044.49 2722.24 1036.02C2723.38 1029.25 2726.2 1023.45 2730.69 1018.62C2735.24 1013.74 2741.09 1010 2748.24 1007.39C2755.43 1004.79 2763.55 1003.49 2772.6 1003.49C2786.75 1003.49 2797.41 1006.4 2804.56 1012.22C2811.75 1018.05 2815.19 1025.98 2814.86 1036.02Z" fill="#4A4A4A"/>
<path d="M330.051 813H273.801L376.216 522.091H441.273L543.83 813H487.58L409.881 581.75H407.608L330.051 813ZM331.898 698.938H485.307V741.267H331.898V698.938ZM579.874 894.818V594.818H630.442V630.898H633.425C636.076 625.595 639.817 619.96 644.646 613.994C649.476 607.934 656.01 602.773 664.249 598.511C672.487 594.155 682.999 591.977 695.783 591.977C712.639 591.977 727.838 596.286 741.379 604.903C755.016 613.426 765.811 626.068 773.766 642.83C781.815 659.496 785.839 679.951 785.839 704.193C785.839 728.152 781.91 748.511 774.05 765.273C766.19 782.034 755.489 794.818 741.947 803.625C728.406 812.432 713.065 816.835 695.925 816.835C683.425 816.835 673.055 814.752 664.817 810.585C656.578 806.419 649.949 801.4 644.93 795.528C640.006 789.562 636.171 783.928 633.425 778.625H631.294V894.818H579.874ZM630.3 703.909C630.3 718.019 632.288 730.377 636.266 740.983C640.338 751.589 646.161 759.875 653.737 765.841C661.408 771.712 670.688 774.648 681.578 774.648C692.942 774.648 702.459 771.617 710.129 765.557C717.8 759.402 723.576 751.021 727.459 740.415C731.436 729.714 733.425 717.545 733.425 703.909C733.425 690.367 731.483 678.341 727.601 667.83C723.718 657.318 717.942 649.08 710.271 643.114C702.601 637.148 693.036 634.165 681.578 634.165C670.593 634.165 661.266 637.053 653.595 642.83C645.925 648.606 640.101 656.703 636.124 667.119C632.241 677.536 630.3 689.799 630.3 703.909ZM829.874 894.818V594.818H880.442V630.898H883.425C886.076 625.595 889.817 619.96 894.646 613.994C899.476 607.934 906.01 602.773 914.249 598.511C922.487 594.155 932.999 591.977 945.783 591.977C962.639 591.977 977.838 596.286 991.379 604.903C1005.02 613.426 1015.81 626.068 1023.77 642.83C1031.81 659.496 1035.84 679.951 1035.84 704.193C1035.84 728.152 1031.91 748.511 1024.05 765.273C1016.19 782.034 1005.49 794.818 991.947 803.625C978.406 812.432 963.065 816.835 945.925 816.835C933.425 816.835 923.055 814.752 914.817 810.585C906.578 806.419 899.949 801.4 894.93 795.528C890.006 789.562 886.171 783.928 883.425 778.625H881.294V894.818H829.874ZM880.3 703.909C880.3 718.019 882.288 730.377 886.266 740.983C890.338 751.589 896.161 759.875 903.737 765.841C911.408 771.712 920.688 774.648 931.578 774.648C942.942 774.648 952.459 771.617 960.129 765.557C967.8 759.402 973.576 751.021 977.459 740.415C981.436 729.714 983.425 717.545 983.425 703.909C983.425 690.367 981.483 678.341 977.601 667.83C973.718 657.318 967.942 649.08 960.271 643.114C952.601 637.148 943.036 634.165 931.578 634.165C920.593 634.165 911.266 637.053 903.595 642.83C895.925 648.606 890.101 656.703 886.124 667.119C882.241 677.536 880.3 689.799 880.3 703.909ZM1176.46 817.261C1154.59 817.261 1135.7 812.716 1119.79 803.625C1103.97 794.439 1091.81 781.466 1083.28 764.705C1074.76 747.848 1070.5 728.009 1070.5 705.188C1070.5 682.744 1074.76 663.047 1083.28 646.097C1091.9 629.051 1103.93 615.794 1119.36 606.324C1134.8 596.759 1152.93 591.977 1173.77 591.977C1187.21 591.977 1199.9 594.155 1211.83 598.511C1223.86 602.773 1234.47 609.402 1243.65 618.398C1252.93 627.394 1260.22 638.852 1265.53 652.773C1270.83 666.598 1273.48 683.076 1273.48 702.205V717.972H1094.65V683.312H1224.19C1224.1 673.464 1221.97 664.705 1217.8 657.034C1213.63 649.269 1207.81 643.161 1200.33 638.71C1192.94 634.259 1184.32 632.034 1174.48 632.034C1163.96 632.034 1154.73 634.591 1146.78 639.705C1138.82 644.723 1132.62 651.352 1128.17 659.591C1123.81 667.735 1121.59 676.684 1121.49 686.438V716.693C1121.49 729.383 1123.81 740.273 1128.45 749.364C1133.09 758.36 1139.58 765.273 1147.91 770.102C1156.25 774.837 1166 777.205 1177.17 777.205C1184.66 777.205 1191.43 776.163 1197.49 774.08C1203.55 771.902 1208.8 768.729 1213.25 764.562C1217.71 760.396 1221.07 755.235 1223.34 749.08L1271.35 754.477C1268.32 767.167 1262.54 778.246 1254.02 787.716C1245.59 797.091 1234.8 804.383 1221.63 809.591C1208.47 814.705 1193.42 817.261 1176.46 817.261ZM1425.93 594.818V634.591H1300.51V594.818H1425.93ZM1331.47 542.545H1382.89V747.375C1382.89 754.288 1383.93 759.591 1386.02 763.284C1388.2 766.883 1391.04 769.345 1394.54 770.67C1398.04 771.996 1401.93 772.659 1406.19 772.659C1409.41 772.659 1412.34 772.422 1414.99 771.949C1417.74 771.475 1419.82 771.049 1421.24 770.67L1429.91 810.869C1427.16 811.816 1423.23 812.858 1418.12 813.994C1413.1 815.131 1406.95 815.794 1399.65 815.983C1386.77 816.362 1375.17 814.42 1364.85 810.159C1354.53 805.803 1346.34 799.08 1340.28 789.989C1334.31 780.898 1331.38 769.534 1331.47 755.898V542.545ZM1468.94 813V594.818H1520.36V813H1468.94ZM1494.79 563.852C1486.64 563.852 1479.64 561.153 1473.77 555.756C1467.89 550.263 1464.96 543.682 1464.96 536.011C1464.96 528.246 1467.89 521.665 1473.77 516.267C1479.64 510.775 1486.64 508.028 1494.79 508.028C1503.03 508.028 1510.03 510.775 1515.81 516.267C1521.68 521.665 1524.62 528.246 1524.62 536.011C1524.62 543.682 1521.68 550.263 1515.81 555.756C1510.03 561.153 1503.03 563.852 1494.79 563.852ZM1570.39 813V780.33L1682.89 639.278V637.432H1574.09V594.818H1745.82V629.903L1638.72 768.54V770.386H1749.51V813H1570.39ZM1888.18 817.261C1866.31 817.261 1847.42 812.716 1831.51 803.625C1815.69 794.439 1803.52 781.466 1795 764.705C1786.48 747.848 1782.22 728.009 1782.22 705.188C1782.22 682.744 1786.48 663.047 1795 646.097C1803.62 629.051 1815.65 615.794 1831.08 606.324C1846.52 596.759 1864.65 591.977 1885.48 591.977C1898.93 591.977 1911.62 594.155 1923.55 598.511C1935.58 602.773 1946.19 609.402 1955.37 618.398C1964.65 627.394 1971.94 638.852 1977.25 652.773C1982.55 666.598 1985.2 683.076 1985.2 702.205V717.972H1806.37V683.312H1935.91C1935.82 673.464 1933.69 664.705 1929.52 657.034C1925.35 649.269 1919.53 643.161 1912.05 638.71C1904.66 634.259 1896.04 632.034 1886.19 632.034C1875.68 632.034 1866.45 634.591 1858.5 639.705C1850.54 644.723 1844.34 651.352 1839.89 659.591C1835.53 667.735 1833.31 676.684 1833.21 686.438V716.693C1833.21 729.383 1835.53 740.273 1840.17 749.364C1844.81 758.36 1851.3 765.273 1859.63 770.102C1867.97 774.837 1877.72 777.205 1888.89 777.205C1896.37 777.205 1903.15 776.163 1909.21 774.08C1915.27 771.902 1920.52 768.729 1924.97 764.562C1929.42 760.396 1932.79 755.235 1935.06 749.08L1983.07 754.477C1980.04 767.167 1974.26 778.246 1965.74 787.716C1957.31 797.091 1946.52 804.383 1933.35 809.591C1920.19 814.705 1905.13 817.261 1888.18 817.261ZM2028.7 813V594.818H2078.56V631.182H2080.83C2084.81 618.587 2091.63 608.881 2101.29 602.062C2111.04 595.15 2122.17 591.693 2134.67 591.693C2137.51 591.693 2140.68 591.835 2144.18 592.119C2147.78 592.309 2150.77 592.64 2153.13 593.114V640.415C2150.96 639.657 2147.5 638.994 2142.76 638.426C2138.12 637.763 2133.63 637.432 2129.27 637.432C2119.89 637.432 2111.47 639.468 2103.99 643.54C2096.6 647.517 2090.78 653.057 2086.51 660.159C2082.25 667.261 2080.12 675.453 2080.12 684.733V813H2028.7ZM2347.66 602.062C2346.34 589.657 2340.75 579.998 2330.9 573.085C2321.15 566.172 2308.46 562.716 2292.84 562.716C2281.85 562.716 2272.43 564.373 2264.57 567.688C2256.71 571.002 2250.7 575.5 2246.53 581.182C2242.36 586.864 2240.23 593.35 2240.14 600.642C2240.14 606.703 2241.51 611.958 2244.26 616.409C2247.1 620.86 2250.93 624.648 2255.76 627.773C2260.59 630.803 2265.94 633.36 2271.81 635.443C2277.68 637.527 2283.6 639.278 2289.57 640.699L2316.84 647.517C2327.83 650.074 2338.38 653.53 2348.52 657.886C2358.74 662.242 2367.88 667.735 2375.93 674.364C2384.08 680.992 2390.52 688.994 2395.25 698.369C2399.98 707.744 2402.35 718.729 2402.35 731.324C2402.35 748.369 2398 763.379 2389.28 776.352C2380.57 789.231 2367.98 799.316 2351.5 806.608C2335.12 813.805 2315.28 817.403 2291.98 817.403C2269.35 817.403 2249.7 813.9 2233.03 806.892C2216.46 799.884 2203.49 789.657 2194.11 776.21C2184.83 762.763 2179.81 746.381 2179.06 727.062H2230.9C2231.66 737.195 2234.79 745.623 2240.28 752.347C2245.77 759.07 2252.92 764.089 2261.73 767.403C2270.63 770.718 2280.57 772.375 2291.56 772.375C2303.02 772.375 2313.05 770.67 2321.67 767.261C2330.38 763.758 2337.2 758.928 2342.12 752.773C2347.05 746.523 2349.56 739.231 2349.65 730.898C2349.56 723.322 2347.33 717.072 2342.98 712.148C2338.62 707.129 2332.51 702.962 2324.65 699.648C2316.89 696.239 2307.8 693.208 2297.38 690.557L2264.28 682.034C2240.33 675.879 2221.39 666.551 2207.47 654.051C2193.64 641.456 2186.73 624.742 2186.73 603.909C2186.73 586.769 2191.37 571.759 2200.65 558.881C2210.02 546.002 2222.76 536.011 2238.86 528.909C2254.96 521.712 2273.19 518.114 2293.55 518.114C2314.19 518.114 2332.28 521.712 2347.81 528.909C2363.43 536.011 2375.7 545.907 2384.6 558.597C2393.5 571.191 2398.09 585.68 2398.38 602.062H2347.66Z" fill="white"/>
</svg>
